<svg xmlns="http://www.w3.org/2000/svg" width="24" height="25" viewBox="0 0 24 25">
    <g fill="none" fill-rule="evenodd">
        <text fill="#123262" font-family="Roboto-Bold, Roboto" font-size="16" font-weight="bold" letter-spacing=".667">
            <tspan x="8" y="15.826">?</tspan>
        </text>
        <path stroke="#123262" stroke-width="2" d="M21 1H3c-.552 0-1.052.224-1.414.586C1.224 1.948 1 2.448 1 3v13.792c0 .552.224 1.052.586 1.414.362.362.862.586 1.414.586h2.745c.112 2.158.256 3.733.468 4.87.673-.71 1.951-2.492 3.867-4.87H21c.552 0 1.052-.224 1.414-.586.362-.362.586-.862.586-1.414V3c0-.552-.224-1.052-.586-1.414C22.052 1.224 21.552 1 21 1z"/>
    </g>
</svg>
